# xmcd
#
# Track frame offsets:
#	150
#	20350
#	41100
#	62002
#	71400
#	78772
#	88795
#	105300
#	130635
#	144287
#	174800
#
# Disc length: 2471 seconds
#
# Revision: 1
# Processed by: cddbd v1.4PL0 Copyright (c) Steve Scherf et al.
# Submitted via: audiograbber 1.80.04
#
DISCID=7d09a50b
DTITLE=Matthews Southern Comfort - Later That Same Year
DYEAR=1970
DGENRE=
TTITLE0=Woodstock
TTITLE1=To Love
TTITLE2=And Me
TTITLE3=Tell Me Why
TTITLE4=My Lady
TTITLE5=And When She Smiles (She Makes The Sun Shine)
TTITLE6=Mare, Take Me Home
TTITLE7=Sylvie
TTITLE8=The Brand New Tenessee Waltz
TTITLE9=For Melanie
TTITLE10=Road To Ronderlin
EXTD=
EXTT0=
EXTT1=
EXTT2=
EXTT3=
EXTT4=
EXTT5=
EXTT6=
EXTT7=
EXTT8=
EXTT9=
EXTT10=
PLAYORDER=
